<svg width="48" height="48" viewBox="0 0 48 48" xmlns="http://www.w3.org/2000/svg" xmlns:xlink="http://www.w3.org/1999/xlink"><svg width="24" height="24" fill="none" viewBox="0 0 24 24" id="doc"><rect x="5" y="4" width="14" height="17" rx="2" fill="#7E869E" fill-opacity=".25" stroke="#1F2324" stroke-width="1.2"/><path d="M9 9h6m-6 4h6m-6 4h4" stroke="#1F2324" stroke-width="1.2" stroke-linecap="round"/></svg><svg width="24" height="24" fill="none" viewBox="0 0 24 24" id="filter" x="24"><path fill-rule="evenodd" clip-rule="evenodd" d="M20 5a1 1 0 0 0-1-1H5a1 1 0 0 0-1 1v1.586a1 1 0 0 0 .293.707l4.414 4.414a1 1 0 0 1 .293.707v6.892a.5.5 0 0 0 .658.475l5-1.667A.5.5 0 0 0 15 17.64v-5.226a1 1 0 0 1 .293-.707l4.414-4.414A1 1 0 0 0 20 6.586V5Z" fill="#7E869E" fill-opacity=".25"/><path d="m9.658 19.78.19.57-.19-.57Zm5-1.666.19.57-.19-.57Zm5.05-10.821.423.424-.424-.424Zm-4.415 4.414-.424-.424.424.424ZM5 4.6h14V3.4H5v1.2Zm-.4 1.986V5H3.4v1.586h1.2Zm4.531 4.697L4.717 6.869l-.848.848 4.414 4.414.848-.848ZM8.4 12.414v6.892h1.2v-6.892H8.4Zm0 6.892a1.1 1.1 0 0 0 1.448 1.044l-.38-1.139a.1.1 0 0 1 .132.095H8.4Zm1.448 1.044 5-1.667-.38-1.138-5 1.666.38 1.139Zm5-1.667a1.1 1.1 0 0 0 .752-1.043h-1.2a.1.1 0 0 1 .068-.095l.38 1.138Zm.752-1.043v-5.226h-1.2v5.226h1.2Zm3.683-10.771-4.414 4.414.848.848 4.414-4.414-.848-.848ZM19.4 5v1.586h1.2V5h-1.2Zm.731 2.717c.3-.3.469-.707.469-1.131h-1.2a.4.4 0 0 1-.117.283l.848.848ZM15.6 12.414a.4.4 0 0 1 .117-.283l-.848-.848a1.6 1.6 0 0 0-.469 1.131h1.2Zm-7.317-.283a.4.4 0 0 1 .117.283h1.2a1.6 1.6 0 0 0-.469-1.131l-.848.848ZM3.4 6.586c0 .424.169.831.469 1.131l.848-.848a.4.4 0 0 1-.117-.283H3.4ZM19 4.6c.22 0 .4.18.4.4h1.2A1.6 1.6 0 0 0 19 3.4v1.2ZM5 3.4A1.6 1.6 0 0 0 3.4 5h1.2c0-.22.18-.4.4-.4V3.4Z" fill="#1F2324"/></svg><svg width="24" height="24" fill="none" viewBox="0 0 24 24" id="phone-icon" y="24"><path d="m17.707 13.707 2.648 2.648a.912.912 0 0 1 0 1.29 5.471 5.471 0 0 1-7.151.508l-1.575-1.182a22.996 22.996 0 0 1-4.6-4.6l-1.182-1.575a5.471 5.471 0 0 1 .508-7.151.912.912 0 0 1 1.29 0l2.648 2.648a1 1 0 0 1 0 1.414L9.272 8.728a.533.533 0 0 0-.1.616 12.262 12.262 0 0 0 5.484 5.484.533.533 0 0 0 .616-.1l1.02-1.02a1 1 0 0 1 1.415 0Z" fill="#7E869E" fill-opacity=".25" stroke="#1F2324" stroke-width="1.2"/></svg></svg>