<?xml version="1.0" standalone="no"?>
<!DOCTYPE svg PUBLIC "-//W3C//DTD SVG 20010904//EN"
 "http://www.w3.org/TR/2001/REC-SVG-20010904/DTD/svg10.dtd">
<svg version="1.0" xmlns="http://www.w3.org/2000/svg"
 width="500.000000pt" height="500.000000pt" viewBox="0 0 500.000000 500.000000"
 preserveAspectRatio="xMidYMid meet">
<metadata>
Created by potrace 1.14, written by Peter Selinger 2001-2017
</metadata>
<g transform="translate(0.000000,500.000000) scale(0.100000,-0.100000)"
fill="#000000" stroke="none">
<path d="M2407 4903 c-2 -1 -18 -4 -38 -6 -38 -4 -151 -37 -159 -47 -3 -3 -23
-14 -46 -24 -23 -10 -53 -29 -67 -42 -14 -13 -29 -24 -32 -24 -15 0 -1867
-1867 -1897 -1912 -149 -228 -136 -533 30 -737 60 -74 1891 -1901 1905 -1901
7 0 22 -8 33 -18 28 -26 139 -70 214 -86 80 -16 249 -10 282 10 4 3 16 7 25 9
26 4 137 58 141 67 2 4 9 8 14 8 6 0 18 6 27 14 9 7 444 440 967 962 937 936
951 950 992 1031 22 45 44 99 48 120 4 21 9 42 12 48 12 20 17 182 7 225 -3
14 -8 34 -10 46 -13 60 -71 184 -107 230 -52 66 -1875 1883 -1918 1912 -30 20
-58 42 -62 47 -4 6 -8 6 -8 1 0 -4 -11 -1 -25 8 -14 9 -25 14 -25 10 0 -4 -6
-2 -12 3 -17 13 -72 31 -123 39 -40 7 -164 12 -168 7z"/>
</g>
</svg>
